:FULLY-SPECIFIED
:FORCE-ALL-JOINTS-BE-3DOF
:DEGREES
43
root 0.543412 17.2946 -13.6616 4.24928 -9.54649 -5.20964
lfemur -26.1848 15.2315 -8.79163
ltibia 113.54 -0 0
lfoot 15.741 -4.60945 0.00342199
ltoes -9.00714 0 0
rfemur -14.3815 3.43953 32.3581
rtibia 41.439 -0 0
rfoot -16.2508 -6.41903 -0.00425572
rtoes -8.57123 0 0
lowerback 18.4407 -0.782554 4.07518
upperback 2.28468 -0.0399135 2.21947
thorax -7.87224 -0.118346 0.0866966
lowerneck -1.31234 2.94635 0.91157
upperneck -16.6804 3.4448 -4.02588
head -4.68783 1.85031 -1.52187
lclavicle 3.77691e-15 4.21423e-14 0
lhumerus -48.2788 -10.8309 96.4756
lradius 103.855 -0 0
lwrist 34.142 0 0
lhand -39.5758 14.0824 -0.00126661
lfingers 7.12502 -0 0
lthumb -12.5588 43.6847 -0.00118222
rclavicle 3.77691e-15 4.21423e-14 0
rhumerus -30.5208 12.715 -88.2039
rradius 101.385 -0 0
rwrist -2.80178 0 0
rhand -44.5638 38.0783 0.000952149
rfingers 7.12502 -0 0
rthumb -17.3639 8.83324 0.00108938
44
root 0.544086 17.2984 -13.1222 4.17446 -9.4482 -5.1468
lfemur -26.2565 15.118 -8.89172
ltibia 113.149 -0 0
lfoot 15.6015 -4.60537 0.00242218
ltoes -9.09622 0 0
rfemur -14.1492 3.23825 32.2741
rtibia 41.7639 -0 0
rfoot -15.9291 -6.43359 -0.00821944
rtoes -8.22806 0 0
lowerback 18.4258 -0.776242 4.02409
upperback 2.30267 -0.0444972 2.18861
thorax -7.84387 -0.119826 0.0826015
lowerneck -1.37589 2.91771 0.885375
upperneck -16.6027 3.41457 -3.97004
head -4.65275 1.83344 -1.50086
lclavicle 3.77691e-15 4.21423e-14 0
lhumerus -48.2983 -10.7814 96.4203
lradius 103.796 -0 0
lwrist 34.1411 0 0
lhand -39.5478 14.0441 -0.00305812
lfingers 7.12502 -0 0
lthumb -12.5318 43.6477 -0.00285742
rclavicle 3.77691e-15 4.21423e-14 0
rhumerus -30.5343 12.6512 -88.1621
rradius 101.26 -0 0
rwrist -2.75985 0 0
rhand -44.5195 38.0554 0.0018286
rfingers 7.12502 -0 0
rthumb -17.3213 8.80607 0.00209219
45
root 0.54476 17.3022 -12.5829 4.09063 -9.30746 -5.05898
lfemur -26.3062 14.9409 -9.04485
ltibia 112.528 -0 0
lfoot 15.3525 -4.58977 -0.00272099
ltoes -9.20371 0 0
rfemur -13.9402 2.99859 32.1373
rtibia 42.3032 -0 0
rfoot -15.4924 -6.44725 -0.0118595
rtoes -7.80147 0 0
lowerback 18.4111 -0.770029 3.94386
upperback 2.32164 -0.0561647 2.14274
thorax -7.81385 -0.124041 0.0806027
lowerneck -1.45054 2.87742 0.850216
upperneck -16.5075 3.37257 -3.88577
head -4.61148 1.80971 -1.46922
lclavicle 3.77691e-15 4.21423e-14 0
lhumerus -48.2308 -10.7563 96.3344
lradius 103.754 -0 0
lwrist 34.1058 0 0
lhand -39.5106 13.9883 -0.00532478
lfingers 7.12502 -0 0
lthumb -12.496 43.5937 -0.00497898
rclavicle 3.77691e-15 4.21423e-14 0
rhumerus -30.6077 12.5684 -88.1183
rradius 101.07 -0 0
rwrist -2.70689 0 0
rhand -44.4801 38.0347 0.0026275
rfingers 7.12502 -0 0
rthumb -17.2834 8.78157 0.00300624
46
root 0.545434 17.306 -12.0436 3.99851 -9.12649 -4.94765
lfemur -26.3337 14.7036 -9.24809
ltibia 111.69 -0 0
lfoot 15.0002 -4.56313 -0.0116684
ltoes -9.32851 0 0
rfemur -13.7531 2.72305 31.9505
rtibia 43.0452 -0 0
rfoot -14.9469 -6.46005 -0.0151525
rtoes -7.29597 0 0
lowerback 18.3967 -0.763943 3.83604
upperback 2.34153 -0.0745594 2.08265
thorax -7.78231 -0.13086 0.0806068
lowerneck -1.5357 2.8261 0.806616
upperneck -16.3961 3.31936 -3.77467
head -4.56436 1.77947 -1.42752
lclavicle 3.77691e-15 4.21423e-14 0
lhumerus -48.0806 -10.7541 96.2196
lradius 103.727 -0 0
lwrist 34.0968 0 0
lhand -39.4649 13.9157 -0.00801024
lfingers 7.12502 -0 0
lthumb -12.4519 43.5234 -0.00749407
rclavicle 3.77691e-15 4.21423e-14 0
rhumerus -30.7381 12.4678 -88.0726
rradius 100.818 -0 0
rwrist -2.64356 0 0
rhand -44.4452 38.0162 0.00334778
rfingers 7.12502 -0 0
rthumb -17.2499 8.75964 0.00383028
47
root 0.546108 17.3098 -11.5043 3.89883 -8.90747 -4.81426
lfemur -26.3393 14.4097 -9.49857
ltibia 110.648 -0 0
lfoot 14.5507 -4.52594 -0.024031
ltoes -9.46952 0 0
rfemur -13.5868 2.41407 31.7164
rtibia 43.9784 -0 0
rfoot -14.2988 -6.47203 -0.0180825
rtoes -6.71605 0 0
lowerback 18.3825 -0.758011 3.70217
upperback 2.36227 -0.0993247 2.00917
thorax -7.74939 -0.140152 0.0825204
lowerneck -1.63077 2.76437 0.755101
upperneck -16.2691 3.25546 -3.63835
head -4.51172 1.74308 -1.37637
lclavicle 3.77691e-15 4.21423e-14 0
lhumerus -47.8521 -10.7735 96.0774
lradius 103.715 -0 0
lwrist 34.0548 0 0
lhand -39.411 13.8273 -0.0110529
lfingers 7.12502 -0 0
lthumb -12.3999 43.4377 -0.010345
rclavicle 3.77691e-15 4.21423e-14 0
rhumerus -30.9225 12.3506 -88.0248
rradius 100.509 -0 0
rwrist -2.57048 0 0
rhand -44.4148 37.9997 0.00398914
rfingers 7.12502 -0 0
rthumb -17.2206 8.74019 0.00456394
48
root 0.546782 17.3136 -10.9649 3.79236 -8.65262 -4.6603
lfemur -26.3228 14.0624 -9.79347
ltibia 109.412 -0 0
lfoot 14.0098 -4.47867 -0.0393794
ltoes -9.62565 0 0
rfemur -13.4396 2.07403 31.4377
rtibia 45.0911 -0 0
rfoot -13.5546 -6.48321 -0.0206403
rtoes -6.06623 0 0
lowerback 18.3685 -0.752257 3.5438
upperback 2.38379 -0.130104 1.92308
thorax -7.7152 -0.151787 0.0862501
lowerneck -1.73514 2.69282 0.696198
upperneck -16.1276 3.18139 -3.47843
head -4.45388 1.70091 -1.31635
lclavicle 3.77691e-15 4.21423e-14 0
lhumerus -47.5496 -10.8131 95.9093
lradius 103.717 -0 0
lwrist 34.0003 0 0
lhand -39.3494 13.724 -0.0143874
lfingers 7.12502 -0 0
lthumb -12.3405 43.3374 -0.0134703
rclavicle 3.77691e-15 4.21423e-14 0
rhumerus -31.1577 12.2178 -87.9747
rradius 100.145 -0 0
rwrist -2.48828 0 0
rhand -44.3885 37.9852 0.00455194
rfingers 7.12502 -0 0
rthumb -17.1954 8.72312 0.00520763
